<svg width="235" height="235" viewBox="0 0 235 235" fill="none" xmlns="http://www.w3.org/2000/svg">
<g clip-path="url(#clip0_12650_9379)">
<path d="M111.045 200.313L98.2922 202.606C97.276 202.789 96.3044 202.113 96.1221 201.097C95.9394 200.082 96.6148 199.11 97.6307 198.927L107.209 197.205L106.808 184.261C106.775 183.23 107.586 182.367 108.618 182.335C109.65 182.303 110.512 183.114 110.544 184.145L111.045 200.313Z" fill="#E08828"/>
<path d="M121.545 203.113C121.086 203.572 120.4 203.779 119.729 203.596L108.635 200.562C107.639 200.29 107.052 199.262 107.325 198.266C107.598 197.27 108.625 196.684 109.621 196.956L120.715 199.99C121.711 200.262 122.297 201.29 122.025 202.286C121.936 202.61 121.767 202.891 121.545 203.113L121.545 203.113Z" fill="#E08828"/>
<path d="M142.43 194.92L132.742 203.525C131.97 204.21 130.789 204.14 130.103 203.368C129.418 202.596 129.493 201.409 130.26 200.73L137.537 194.268L130.447 183.431C129.883 182.566 130.125 181.409 130.989 180.843C131.852 180.278 133.011 180.521 133.576 181.384L142.43 194.92Z" fill="#E08828"/>
<path d="M152.353 192.724C152.137 192.94 151.866 193.106 151.552 193.197L140.502 196.39C139.511 196.677 138.474 196.105 138.188 195.114C137.901 194.121 138.473 193.085 139.464 192.799L150.513 189.606C151.506 189.319 152.541 189.89 152.828 190.882C153.024 191.56 152.819 192.258 152.353 192.724V192.724Z" fill="#E08828"/>
<path d="M164.717 156.42C138.748 159.226 130.269 152.401 130.269 152.401C106.485 134.129 56.1573 142.944 46.9144 143.669C37.6715 144.394 43.3006 155.973 43.3006 155.973C48.4289 163.13 53.7673 168.913 59.2286 173.52C65.2444 170.992 76.0751 169.554 94.2159 176.109C112.385 182.674 126.723 182.337 135.803 180.779C149.1 174.776 160.089 166.8 166.785 161.346C168.939 159.592 167.48 156.122 164.717 156.42V156.42Z" fill="#FFD93B"/>
<path fill-rule="evenodd" clip-rule="evenodd" d="M166.785 161.346C160.089 166.8 149.1 174.776 135.802 180.779C135.386 180.85 134.959 180.919 134.52 180.985C134.959 180.919 135.386 180.85 135.802 180.779C113.637 190.785 85.0551 195.307 59.2285 173.52C65.2438 170.992 76.0753 169.554 94.2162 176.109C105.713 180.264 115.677 181.654 123.744 181.72C115.677 181.654 105.714 180.264 94.2162 176.109C76.0753 169.554 65.2446 170.992 59.2285 173.52C53.7672 168.913 48.4288 163.13 43.3013 155.973C43.3013 155.973 37.6715 144.394 46.9142 143.669C56.157 142.944 106.486 134.129 130.269 152.4C130.269 152.4 138.748 159.226 164.717 156.42C167.373 156.132 168.825 159.329 167.018 161.136C166.946 161.208 166.868 161.278 166.785 161.346L166.785 161.346ZM134.452 180.995C134.409 181.002 134.367 181.008 134.324 181.014C134.367 181.008 134.409 181.002 134.452 180.995ZM134.189 181.034C134.101 181.047 134.012 181.059 133.922 181.072C134.012 181.059 134.101 181.047 134.189 181.034ZM133.507 181.129C133.442 181.137 133.376 181.146 133.31 181.155C133.376 181.146 133.442 181.137 133.507 181.129ZM124.926 181.72C124.915 181.721 124.904 181.72 124.893 181.721C124.904 181.72 124.915 181.721 124.926 181.72ZM124.697 181.722C124.384 181.723 124.068 181.723 123.749 181.72C124.068 181.723 124.384 181.723 124.697 181.722Z" fill="#FFD93B"/>
<path d="M166.785 161.346L167.139 161.699L166.469 160.958L166.785 161.346ZM135.802 180.779L135.887 181.272L135.95 181.261L136.008 181.235L135.802 180.779ZM135.802 180.779L136.008 181.235L135.718 180.286L135.802 180.779ZM59.2285 173.52L59.0348 173.059L58.2817 173.376L58.9061 173.902L59.2285 173.52ZM94.2162 176.109L94.3861 175.639L94.3861 175.639L94.2162 176.109ZM123.744 181.72L123.74 182.22L123.748 181.22L123.744 181.72ZM94.2162 176.109L94.0463 176.58L94.0463 176.58L94.2162 176.109ZM59.2285 173.52L58.906 173.902L59.14 174.1L59.4222 173.981L59.2285 173.52ZM43.3013 155.973L42.8516 156.191L42.8701 156.229L42.8948 156.264L43.3013 155.973ZM46.9142 143.669L46.9533 144.167L46.9533 144.167L46.9142 143.669ZM130.269 152.4L130.583 152.011L130.574 152.004L130.269 152.4ZM164.717 156.42L164.77 156.917L164.771 156.917L164.717 156.42ZM167.018 161.136L166.664 160.782L166.664 160.782L167.018 161.136ZM166.785 161.346L166.431 160.992L167.101 161.733L166.785 161.346ZM134.189 181.034L134.261 181.529L134.118 180.539L134.189 181.034ZM133.507 181.129L133.573 181.624L133.441 180.633L133.507 181.129ZM123.749 181.72L123.752 181.22L123.744 182.22L123.749 181.72ZM166.469 160.958C159.793 166.396 148.841 174.345 135.597 180.323L136.008 181.235C149.359 175.208 160.386 167.204 167.101 161.733L166.469 160.958ZM135.718 180.286C135.305 180.357 134.881 180.425 134.446 180.491L134.595 181.48C135.036 181.413 135.467 181.344 135.887 181.272L135.718 180.286ZM134.595 181.48C135.036 181.413 135.467 181.344 135.887 181.272L135.718 180.286C135.305 180.357 134.881 180.425 134.446 180.491L134.595 181.48ZM135.597 180.323C113.519 190.289 85.1688 194.749 59.5509 173.138L58.9061 173.902C84.9414 195.865 113.755 191.28 136.008 181.235L135.597 180.323ZM59.4222 173.981C65.2905 171.515 75.9872 170.054 94.0463 176.58L94.3861 175.639C76.1634 169.055 65.197 170.47 59.0348 173.059L59.4222 173.981ZM94.0463 176.58C105.598 180.754 115.617 182.154 123.74 182.22L123.748 181.22C115.736 181.154 105.829 179.774 94.3861 175.639L94.0463 176.58ZM123.748 181.22C115.737 181.154 105.83 179.774 94.3861 175.639L94.0463 176.58C105.599 180.754 115.618 182.153 123.74 182.22L123.748 181.22ZM94.3861 175.639C76.1635 169.055 65.1979 170.469 59.0347 173.059L59.4222 173.981C65.2913 171.514 75.9872 170.054 94.0463 176.58L94.3861 175.639ZM59.5509 173.138C54.1247 168.56 48.8138 162.809 43.7077 155.682L42.8948 156.264C48.0438 163.451 53.4098 169.265 58.906 173.902L59.5509 173.138ZM43.3013 155.973C43.7509 155.754 43.751 155.754 43.751 155.754C43.751 155.754 43.751 155.754 43.751 155.754C43.7509 155.754 43.7507 155.754 43.7505 155.753C43.75 155.752 43.7492 155.75 43.748 155.748C43.7458 155.743 43.7422 155.736 43.7374 155.726C43.7278 155.705 43.7134 155.675 43.6948 155.634C43.6575 155.553 43.6033 155.432 43.5372 155.277C43.4049 154.968 43.2254 154.523 43.038 153.987C42.6618 152.911 42.2611 151.485 42.1399 150.05C42.0181 148.608 42.1846 147.223 42.8696 146.17C43.5376 145.142 44.7584 144.339 46.9533 144.167L46.8751 143.17C44.4487 143.361 42.9072 144.277 42.0312 145.625C41.1723 146.946 41.0132 148.592 41.1435 150.135C41.2745 151.686 41.7035 153.2 42.094 154.317C42.2901 154.878 42.4781 155.344 42.6176 155.67C42.6874 155.834 42.7452 155.962 42.7858 156.051C42.8062 156.095 42.8222 156.13 42.8334 156.153C42.839 156.165 42.8433 156.174 42.8464 156.181C42.8479 156.184 42.8491 156.186 42.85 156.188C42.8504 156.189 42.8508 156.19 42.8511 156.19C42.8512 156.19 42.8513 156.191 42.8514 156.191C42.8515 156.191 42.8516 156.191 43.3013 155.973ZM46.9533 144.167C51.6339 143.8 66.4506 141.421 83.1393 141.411C99.8381 141.4 118.215 143.77 129.964 152.797L130.574 152.004C118.54 142.759 99.861 140.4 83.1387 140.411C66.4065 140.421 51.4373 142.812 46.8751 143.17L46.9533 144.167ZM130.269 152.4C129.956 152.79 129.956 152.79 129.956 152.79C129.956 152.79 129.957 152.791 129.957 152.791C129.958 152.792 129.959 152.792 129.96 152.793C129.962 152.794 129.964 152.796 129.967 152.799C129.973 152.803 129.981 152.81 129.991 152.817C130.012 152.833 130.041 152.855 130.078 152.882C130.154 152.936 130.265 153.013 130.414 153.109C130.712 153.3 131.161 153.564 131.777 153.871C133.011 154.483 134.916 155.261 137.632 155.947C143.065 157.319 151.737 158.325 164.77 156.917L164.663 155.923C151.727 157.32 143.176 156.316 137.877 154.977C135.228 154.308 133.39 153.555 132.222 152.975C131.638 152.685 131.221 152.438 130.954 152.267C130.82 152.181 130.724 152.114 130.663 152.07C130.632 152.048 130.611 152.032 130.597 152.022C130.591 152.017 130.586 152.013 130.584 152.011C130.582 152.011 130.582 152.01 130.582 152.01C130.581 152.01 130.582 152.01 130.582 152.01C130.582 152.01 130.582 152.01 130.582 152.01C130.582 152.01 130.583 152.011 130.269 152.4ZM164.771 156.917C166.95 156.681 168.143 159.304 166.664 160.782L167.372 161.489C169.506 159.354 167.796 155.584 164.663 155.923L164.771 156.917ZM166.664 160.782C166.604 160.842 166.539 160.901 166.469 160.958L167.101 161.733C167.196 161.655 167.287 161.574 167.372 161.489L166.664 160.782ZM167.139 161.699L167.139 161.699L166.431 160.992L166.431 160.992L167.139 161.699ZM134.381 180.5C134.337 180.507 134.293 180.513 134.249 180.52L134.398 181.509C134.44 181.502 134.482 181.496 134.522 181.49L134.381 180.5ZM134.398 181.509C134.44 181.502 134.482 181.496 134.522 181.49L134.381 180.5C134.337 180.507 134.293 180.513 134.249 180.52L134.398 181.509ZM134.118 180.539C134.03 180.552 133.942 180.564 133.854 180.576L133.991 181.567C134.082 181.554 134.172 181.542 134.261 181.529L134.118 180.539ZM133.991 181.567C134.082 181.554 134.172 181.541 134.26 181.529L134.118 180.539C134.029 180.552 133.941 180.564 133.854 180.576L133.991 181.567ZM133.441 180.633C133.376 180.642 133.311 180.65 133.245 180.659L133.375 181.65C133.441 181.642 133.507 181.633 133.573 181.624L133.441 180.633ZM133.375 181.65C133.441 181.642 133.507 181.633 133.573 181.624L133.441 180.633C133.376 180.642 133.311 180.65 133.245 180.659L133.375 181.65ZM124.919 181.22C124.917 181.22 124.914 181.22 124.908 181.22C124.903 181.221 124.895 181.221 124.887 181.221L124.9 182.221C124.902 182.221 124.905 182.221 124.911 182.22C124.916 182.22 124.924 182.22 124.932 182.22L124.919 181.22ZM124.9 182.221C124.902 182.221 124.905 182.221 124.911 182.22C124.916 182.22 124.924 182.22 124.932 182.22L124.919 181.22C124.917 181.22 124.914 181.22 124.908 181.22C124.903 181.221 124.895 181.221 124.887 181.221L124.9 182.221ZM124.694 181.222C124.383 181.223 124.069 181.223 123.753 181.22L123.744 182.22C124.066 182.223 124.384 182.223 124.699 182.222L124.694 181.222ZM123.745 182.22C124.066 182.223 124.384 182.223 124.699 182.222L124.694 181.222C124.384 181.223 124.07 181.223 123.752 181.22L123.745 182.22Z" fill="black" fill-opacity="0.01"/>
<path d="M94.2162 176.11C76.0753 169.555 65.2445 170.993 59.2289 173.521C85.0554 195.307 113.638 190.785 135.803 180.779C126.723 182.337 112.385 182.675 94.2162 176.11Z" fill="#FFEA92"/>
<path d="M146.774 162.335C146.774 162.335 142.992 162.029 137.999 161.393L139.479 160.274C137.484 160.92 134.623 160.842 131.951 160.528C129.527 160.139 127.058 159.685 124.756 159.165L124.752 159.164C122.5 158.655 120.41 158.081 118.682 157.442C109.621 154.089 93.7633 164.238 100.016 171.669C102.426 174.533 108.392 175.12 115.405 174.253C130.582 175.625 146.072 165.002 146.072 165.002L143.042 165.002C144.46 164.134 145.721 163.24 146.774 162.335L146.774 162.335Z" fill="#FFBF3E"/>
<g opacity="0.12">
<path d="M44.4925 157.605L49.579 163.947C49.579 163.947 94.6861 178.051 132.012 153.429C132.012 153.429 130.133 152.518 127.704 150.177C125.275 147.837 44.4925 157.605 44.4925 157.605L44.4925 157.605Z" fill="black"/>
</g>
<path d="M84.7245 70.8899C84.7245 70.8899 49.3879 78.7387 43.407 112.448C37.4263 146.157 43.4069 151.643 43.4069 151.643C43.4069 151.643 96.6625 169.041 121.129 141.312C145.595 113.583 137.983 90.2046 137.983 90.2046C137.983 90.2046 127.7 64.0806 84.7245 70.8899L84.7245 70.8899Z" fill="#FFD93B"/>
<path d="M111.071 67.3698C111.071 67.3698 130.644 82.865 123.304 103.526C115.964 124.186 117.595 155.449 42.5651 148.924C42.5651 148.924 70.8373 160.614 99.1096 151.915C127.382 143.216 136.081 121.196 136.081 121.196C136.081 121.196 154.567 74.1661 111.071 67.3697L111.071 67.3698Z" fill="#F4B61C"/>
<path d="M134.171 132.885C148.006 114.966 142.645 90.5662 137.251 75.7744C132.391 71.7507 96.5529 44.1602 56.8001 70.2693C56.8001 70.2693 93.9529 68.4569 118.601 77.3372C118.601 77.3372 127.843 78.9682 129.474 91.8358C131.106 104.703 131.83 131.344 108.814 147.293C108.814 147.293 73.2924 160.885 30.7028 143.668C30.7028 143.668 29.6153 141.675 30.7026 151.642C30.7026 151.642 51.4634 161.64 80.3488 161.352C98.5093 156.947 122.13 148.481 134.171 132.885L134.171 132.885Z" fill="white"/>
<path d="M137.811 76.2494C137.811 76.2494 137.62 76.0797 137.251 75.774C142.645 90.5659 148.006 114.966 134.171 132.884C122.13 148.481 98.5094 156.947 80.3489 161.351C98.1312 161.174 118.993 157.099 139.986 144.393C139.986 144.393 172.064 116.845 137.811 76.2494Z" fill="#BCD5ED"/>
<ellipse cx="88.3026" cy="113.395" rx="7.07575" ry="7.07575" transform="rotate(-45 88.3026 113.395)" fill="#3E4347"/>
<ellipse cx="61.6624" cy="111.251" rx="7.07575" ry="7.07575" transform="rotate(-45 61.6624 111.251)" fill="#3E4347"/>
<path d="M60.4101 126.582C60.4101 126.582 62.0471 129.986 67.6654 130.167C73.2837 130.348 79.8652 123.484 79.8652 123.484C79.8652 123.484 62.9415 121.094 60.4101 126.582Z" fill="#F29A2E"/>
<path d="M55.8861 125.545C55.8861 125.545 61.8667 116.982 73.0124 119.565L80.3526 123.235C80.3526 123.235 68.799 129.623 55.886 125.545L55.8861 125.545Z" fill="#F29A2E"/>
<path d="M72.0153 121.331C72.0153 121.331 74.054 121.558 74.1449 122.373C74.2354 123.189 71.0186 123.098 72.0153 121.331Z" fill="#3E4347"/>
<g opacity="0.57">
<path d="M62.1262 78.4514C62.1262 78.4514 50.9593 85.0731 45.6839 95.9428L51.477 98.6752C51.477 98.6752 56.7691 88.3633 67.0308 82.8221L62.1262 78.4514Z" fill="white"/>
</g>
<path d="M140.877 145.428L140.774 145.502C140.299 145.839 128.93 153.815 109.54 158.782C98.1681 161.695 86.4017 162.944 74.5675 162.496C59.7849 161.936 44.8583 158.71 30.203 152.907L29.4968 152.627L29.3648 151.879C29.3252 151.657 28.4107 146.388 29.1938 143.183L31.8345 143.829C31.375 145.709 31.6778 148.921 31.9253 150.662C64.1391 163.22 91.5185 160.592 108.866 156.148C126.834 151.546 137.947 144.145 139.1 143.354C148.197 133.871 152.698 123.464 152.481 112.418C152.096 92.8188 136.913 77.4436 135.836 76.379C112.923 59.5431 92.9374 59.0394 80.2005 61.585C66.355 64.352 57.8047 71.2146 57.7196 71.2838L56.0006 69.178C56.364 68.8809 65.0659 61.8712 79.5308 58.9469C88.0175 57.2309 96.7246 57.2969 105.41 59.1427C116.229 61.442 127.033 66.5233 137.524 74.2459L137.66 74.3598C138.358 75.0304 154.78 91.0316 155.2 112.365C155.432 124.196 150.643 135.29 140.966 145.337L140.877 145.428Z" fill="black"/>
<path d="M146.584 137.113L144.331 138.633C135.187 125.081 137.231 114.247 140.555 107.545C144.139 100.32 149.823 96.3585 150.064 96.1932L151.603 98.4338L150.833 97.3137L151.605 98.4325C151.551 98.4698 146.198 102.22 142.944 108.847C138.631 117.63 139.856 127.14 146.584 137.113L146.584 137.113Z" fill="black"/>
<path d="M150.646 127.848C142.349 115.55 153.271 108.044 153.271 108.044C153.271 108.044 154.442 112.72 153.611 117.505C152.78 122.291 150.646 127.848 150.646 127.848Z" fill="black"/>
<path d="M88.2974 97.817C88.2974 97.817 86.377 103.475 97.8861 105.157L88.2974 97.817Z" fill="#3E4347"/>
<path d="M63.5631 95.3701C63.5631 95.3701 65.4837 101.028 53.9744 102.71L63.5631 95.3701Z" fill="#3E4347"/>
<ellipse cx="91.9202" cy="120.214" rx="1.88647" ry="5.11213" transform="rotate(-90 91.9202 120.214)" fill="white"/>
<ellipse cx="58.8291" cy="118.327" rx="1.88647" ry="5.11213" transform="rotate(-90 58.8291 118.327)" fill="white"/>
<ellipse cx="84.2178" cy="120.214" rx="1.88647" ry="1.93384" transform="rotate(-90 84.2178 120.214)" fill="white"/>
<path d="M135.803 51.6026C135.803 51.6026 154.023 32.5732 164.082 40.185C174.14 47.7968 135.803 51.6026 135.803 51.6026Z" fill="#69B9F9"/>
<path d="M139.983 61.4823C139.983 61.4823 165.272 54.0941 170.185 65.7118C175.098 77.3292 139.983 61.4823 139.983 61.4823Z" fill="#69B9F9"/>
<g opacity="0.18">
<path d="M56.2912 70.2688C56.2912 70.2688 22.4097 91.6542 30.194 143.668C30.194 143.668 63.3683 160.613 108.305 147.293C108.305 147.293 139.497 128.674 126.66 84.2932C126.66 84.2932 126.399 76.3934 95.7808 72.1531C65.1627 67.9128 56.2912 70.2688 56.2912 70.2688L56.2912 70.2688Z" fill="white"/>
</g>
<circle cx="59.5" cy="110.5" r="3.5" fill="white"/>
<circle cx="86.5" cy="112.5" r="3.5" fill="white"/>
<path fill-rule="evenodd" clip-rule="evenodd" d="M115.058 143.427C113.387 145.098 111.596 146.734 109.688 148.334L109.524 148.472L109.326 148.552C108.977 148.694 100.616 152.038 86.7139 153.368C73.9211 154.592 53.8493 154.237 30.8782 145.594L30.6034 145.49L29.4125 144.3L29.3546 143.837C25.8451 115.868 33.2561 97.0716 40.0908 86.229C47.537 74.4168 55.7468 69.3202 56.0924 69.1092L56.3965 68.9233L56.7527 68.9108C58.7438 68.8403 105.728 67.3125 124.036 78.5249L124.286 78.678L124.45 78.9204C124.704 79.2928 130.661 88.193 131.865 101.259C132.573 108.947 131.471 116.47 128.588 123.619C125.767 130.616 121.228 137.257 115.058 143.427H115.058ZM108.113 146.107C123.604 133.057 130.682 118.053 129.157 101.508C128.123 90.2769 123.284 82.1548 122.356 80.6857C105.382 70.574 61.726 71.4923 57.2224 71.616C55.7257 72.6202 48.6515 77.6932 42.3085 87.8092C35.7906 98.2029 28.7336 116.203 31.9951 143.038L32.1097 143.152C54.4288 151.493 73.9093 151.85 86.3405 150.673C98.7524 149.498 106.794 146.607 108.113 146.107L108.113 146.107Z" fill="#6FDEFC"/>
</g>
<defs>
<clipPath id="clip0_12650_9379">
<rect width="174.747" height="156.325" fill="white" transform="translate(0.435059 123.566) rotate(-45)"/>
</clipPath>
</defs>
</svg>
